<svg xmlns="http://www.w3.org/2000/svg" viewBox="0 0 90 90"><defs><style>.cls-1{fill:#44a9e0;}.cls-1,.cls-2,.cls-3,.cls-4{fill-rule:evenodd;}.cls-2{fill:#9cd1fc;}.cls-3{fill:#badefc;}.cls-4{fill:#43a6dd;}</style></defs><title>jellyfish</title><g id="jellyfish"><path class="cls-1" d="M24.51,77.63c6.39,2.23,11.45-2.24,8.57-11.52-2.11-6.8.85-14.23,4.64-12.47L44.47,39.1,24.81,34.17,20.2,42.82s5,.12,5.71,4-2,10.45-1,14.52C26.15,66.26,35.93,72.48,24.51,77.63Z"/><path class="cls-1" d="M65.49,77.63C59.09,79.86,54,75.39,56.91,66.11c2.11-6.8-.85-14.23-4.64-12.47L45.53,39.1l19.66-4.93,4.61,8.65s-5,.12-5.71,4,2,10.45,1,14.52C63.85,66.26,54.07,72.48,65.49,77.63Z"/><path class="cls-1" d="M50.06,84.3c-7.24,2.83-12.64-3.37-10.42-11.56,1-3.83,2.91-7.65,1.75-11.2-1.59-6.36-4.09-8.36-.58-17.08a14.35,14.35,0,0,1,2.9-4.75h8.87l4.16,8.09s-6.88.12-7.88,4.23,2.26,8.56.92,12.86C48.17,70,40.64,79.31,50.06,84.3Z"/><path class="cls-2" d="M44.48,37a7.45,7.45,0,0,0-7.57-1.25,1.29,1.29,0,0,1-1.08,0,1.31,1.31,0,0,1-.71-.82,7.52,7.52,0,0,0-6.44-5.26,1.3,1.3,0,0,1-1-.54A1.32,1.32,0,0,1,27.49,28a5.94,5.94,0,0,0,.11-1.16,5.72,5.72,0,1,0-10.2,3.59A5.55,5.55,0,0,0,20.85,39a7.52,7.52,0,0,0,.52,1.41,7.23,7.23,0,0,0-.64,3,7.15,7.15,0,0,0,7.12,7.18,7,7,0,0,0,4.06-1.29A7.1,7.1,0,0,0,45.35,52,7.1,7.1,0,0,0,58.8,49.25a7,7,0,0,0,4.06,1.29,7.19,7.19,0,0,0,6.48-10.16A7.48,7.48,0,0,0,69.86,39a5.55,5.55,0,0,0,3.44-8.53A5.73,5.73,0,1,0,63.21,28,1.32,1.32,0,0,1,63,29.09a1.3,1.3,0,0,1-1,.54,7.53,7.53,0,0,0-6.44,5.26,1.31,1.31,0,0,1-.71.82,1.29,1.29,0,0,1-1.08,0A7.45,7.45,0,0,0,46.22,37,1.33,1.33,0,0,1,44.48,37Z"/><path class="cls-3" d="M44.68,37.34a5.75,5.75,0,0,0-5.84-1,1,1,0,0,1-.83,0,1,1,0,0,1-.54-.64,5.81,5.81,0,0,0-5-4.06,1,1,0,0,1-.74-.42,1,1,0,0,1-.18-.83,4.41,4.41,0,1,0-7.78,1.88,4.29,4.29,0,0,0,2.66,6.58,5.82,5.82,0,0,0,.4,1.09,5.58,5.58,0,0,0-.49,2.3,5.52,5.52,0,0,0,5.49,5.54,5.44,5.44,0,0,0,3.14-1,5.48,5.48,0,0,0,10.37,2.12A5.48,5.48,0,0,0,55.73,46.8a5.44,5.44,0,0,0,3.14,1,5.55,5.55,0,0,0,5-7.84,5.82,5.82,0,0,0,.4-1.09,4.29,4.29,0,0,0,2.66-6.58A4.43,4.43,0,1,0,59,29.51a4.59,4.59,0,0,0,.09.89,1,1,0,0,1-.18.83,1,1,0,0,1-.74.42,5.81,5.81,0,0,0-5,4.06,1,1,0,0,1-.54.64,1,1,0,0,1-.83,0,5.75,5.75,0,0,0-5.84,1A1,1,0,0,1,44.68,37.34Z"/><path class="cls-4" d="M10,37.88C7.35,29.2,11.2,20.49,17.55,14.74,24.12,8.78,34,5,45,5s20.88,3.78,27.45,9.74C78.8,20.49,82.65,29.2,80,37.88c-1.2,3.85-4.18,6.65-8.19,6.65A7.94,7.94,0,0,1,66,42a1.26,1.26,0,0,0-1.84,0,7.89,7.89,0,0,1-11.55,0,1.25,1.25,0,0,0-1.84,0,7.89,7.89,0,0,1-11.55,0,1.26,1.26,0,0,0-1.84,0,7.89,7.89,0,0,1-11.55,0A1.26,1.26,0,0,0,24,42a7.94,7.94,0,0,1-5.78,2.51C14.21,44.53,11.23,41.73,10,37.88Z"/></g></svg>